STARTFONT 2.1
FONT -DEC-MiriamFixed-Medium-O-Normal--8-80-75-75-M-50-ISO8859-8
SIZE 8 75 75
FONTBOUNDINGBOX 6 8 0 -2

STARTPROPERTIES 26
FONTNAME_REGISTRY ""
FAMILY_NAME "MiriamFixed"
FOUNDRY "DEC"
WEIGHT_NAME "Medium"
SLANT "O"
SETWIDTH_NAME "Normal"
ADD_STYLE_NAME ""
PIXEL_SIZE 8
RESOLUTION_X 75
RESOLUTION_Y 75
SPACING "M"
AVERAGE_WIDTH 50
CHARSET_REGISTRY "ISO8859"
CHARSET_ENCODING "8"
CHARSET_COLLECTIONS "ASCII ISO8859-8 "
FULL_NAME "MiriamFixed Oblique"
COPYRIGHT "Digital Israel"
CAP_HEIGHT 6
X_HEIGHT 5
_DEC_DEVICE_FONTNAMES "PS=MiriamFixed-Oblique-ISOLatinHebrew"
QUAD_WIDTH 5
POINT_SIZE 80
WEIGHT 10
DEFAULT_CHAR 0
FONT_DESCENT 2
FONT_ASCENT 8
ENDPROPERTIES

CHARS 152

STARTCHAR space
ENCODING 32
SWIDTH 600 0
DWIDTH 5 0
BBX 1 1 0 0
BITMAP
00
ENDCHAR

STARTCHAR exclam
ENCODING 33
SWIDTH 600 0
DWIDTH 5 0
BBX 2 6 2 -1
BITMAP
40
40
80
80
00
80
ENDCHAR

STARTCHAR quotedbl
ENCODING 34
SWIDTH 600 0
DWIDTH 5 0
BBX 4 3 1 2
BITMAP
50
50
A0
ENDCHAR

STARTCHAR numbersign
ENCODING 35
SWIDTH 600 0
DWIDTH 5 0
BBX 6 6 0 -1
BITMAP
28
7C
28
F8
50
50
ENDCHAR

STARTCHAR dollar
ENCODING 36
SWIDTH 600 0
DWIDTH 5 0
BBX 5 7 0 -2
BITMAP
10
38
40
70
10
E0
40
ENDCHAR

STARTCHAR percent
ENCODING 37
SWIDTH 600 0
DWIDTH 5 0
BBX 4 6 1 -1
BITMAP
40
D0
A0
50
B0
20
ENDCHAR

STARTCHAR ampersand
ENCODING 38
SWIDTH 600 0
DWIDTH 5 0
BBX 4 5 1 -1
BITMAP
30
40
70
A0
D0
ENDCHAR

STARTCHAR quoteright
ENCODING 39
SWIDTH 600 0
DWIDTH 5 0
BBX 2 3 2 2
BITMAP
40
40
80
ENDCHAR

STARTCHAR parenleft
ENCODING 40
SWIDTH 600 0
DWIDTH 5 0
BBX 3 6 2 -1
BITMAP
20
40
80
80
80
40
ENDCHAR

STARTCHAR parenright
ENCODING 41
SWIDTH 600 0
DWIDTH 5 0
BBX 3 6 1 -1
BITMAP
40
20
20
20
40
80
ENDCHAR

STARTCHAR asterisk
ENCODING 42
SWIDTH 600 0
DWIDTH 5 0
BBX 3 3 2 2
BITMAP
40
E0
C0
ENDCHAR

STARTCHAR plus
ENCODING 43
SWIDTH 600 0
DWIDTH 5 0
BBX 4 5 1 -1
BITMAP
20
20
F0
40
40
ENDCHAR

STARTCHAR comma
ENCODING 44
SWIDTH 600 0
DWIDTH 5 0
BBX 2 2 1 -2
BITMAP
40
80
ENDCHAR

STARTCHAR minus
ENCODING 45
SWIDTH 600 0
DWIDTH 5 0
BBX 4 1 1 1
BITMAP
F0
ENDCHAR

STARTCHAR period
ENCODING 46
SWIDTH 600 0
DWIDTH 5 0
BBX 1 1 2 -1
BITMAP
80
ENDCHAR

STARTCHAR slash
ENCODING 47
SWIDTH 600 0
DWIDTH 5 0
BBX 4 6 1 -1
BITMAP
10
20
20
40
40
80
ENDCHAR

STARTCHAR zero
ENCODING 48
SWIDTH 600 0
DWIDTH 5 0
BBX 4 6 1 -1
BITMAP
30
50
90
90
A0
C0
ENDCHAR

STARTCHAR one
ENCODING 49
SWIDTH 600 0
DWIDTH 5 0
BBX 4 6 0 -1
BITMAP
10
70
10
20
20
F0
ENDCHAR

STARTCHAR two
ENCODING 50
SWIDTH 600 0
DWIDTH 5 0
BBX 5 6 0 -1
BITMAP
38
48
10
20
40
F0
ENDCHAR

STARTCHAR three
ENCODING 51
SWIDTH 600 0
DWIDTH 5 0
BBX 5 6 0 -1
BITMAP
30
08
38
10
90
60
ENDCHAR

STARTCHAR four
ENCODING 52
SWIDTH 600 0
DWIDTH 5 0
BBX 5 6 0 -1
BITMAP
10
30
50
F8
20
20
ENDCHAR

STARTCHAR five
ENCODING 53
SWIDTH 600 0
DWIDTH 5 0
BBX 4 6 1 -1
BITMAP
70
40
C0
20
20
C0
ENDCHAR

STARTCHAR six
ENCODING 54
SWIDTH 600 0
DWIDTH 5 0
BBX 4 6 1 -1
BITMAP
30
40
60
90
90
60
ENDCHAR

STARTCHAR seven
ENCODING 55
SWIDTH 600 0
DWIDTH 5 0
BBX 4 6 1 -1
BITMAP
70
90
20
40
40
40
ENDCHAR

STARTCHAR eight
ENCODING 56
SWIDTH 600 0
DWIDTH 5 0
BBX 4 6 1 -1
BITMAP
30
50
60
90
90
E0
ENDCHAR

STARTCHAR nine
ENCODING 57
SWIDTH 600 0
DWIDTH 5 0
BBX 5 6 0 -1
BITMAP
30
48
48
30
20
C0
ENDCHAR

STARTCHAR colon
ENCODING 58
SWIDTH 600 0
DWIDTH 5 0
BBX 2 4 2 -1
BITMAP
40
00
00
80
ENDCHAR

STARTCHAR semicolon
ENCODING 59
SWIDTH 600 0
DWIDTH 5 0
BBX 2 5 1 -2
BITMAP
40
00
00
40
80
ENDCHAR

STARTCHAR less
ENCODING 60
SWIDTH 600 0
DWIDTH 5 0
BBX 3 4 1 0
BITMAP
20
40
80
40
ENDCHAR

STARTCHAR equal
ENCODING 61
SWIDTH 600 0
DWIDTH 5 0
BBX 5 3 0 0
BITMAP
78
00
F0
ENDCHAR

STARTCHAR greater
ENCODING 62
SWIDTH 600 0
DWIDTH 5 0
BBX 3 4 1 0
BITMAP
40
20
40
80
ENDCHAR

STARTCHAR question
ENCODING 63
SWIDTH 600 0
DWIDTH 5 0
BBX 3 6 2 -1
BITMAP
40
A0
20
40
00
80
ENDCHAR

STARTCHAR at
ENCODING 64
SWIDTH 600 0
DWIDTH 5 0
BBX 5 6 0 -1
BITMAP
30
50
B0
B8
80
60
ENDCHAR

STARTCHAR A
ENCODING 65
SWIDTH 600 0
DWIDTH 5 0
BBX 5 5 0 -1
BITMAP
78
28
78
50
D0
ENDCHAR

STARTCHAR B
ENCODING 66
SWIDTH 600 0
DWIDTH 5 0
BBX 5 5 0 -1
BITMAP
78
28
70
50
F0
ENDCHAR

STARTCHAR C
ENCODING 67
SWIDTH 600 0
DWIDTH 5 0
BBX 4 5 1 -1
BITMAP
70
D0
80
90
60
ENDCHAR

STARTCHAR D
ENCODING 68
SWIDTH 600 0
DWIDTH 5 0
BBX 5 5 0 -1
BITMAP
70
28
48
50
E0
ENDCHAR

STARTCHAR E
ENCODING 69
SWIDTH 600 0
DWIDTH 5 0
BBX 5 5 0 -1
BITMAP
78
20
70
40
F0
ENDCHAR

STARTCHAR F
ENCODING 70
SWIDTH 600 0
DWIDTH 5 0
BBX 5 5 0 -1
BITMAP
78
20
70
40
C0
ENDCHAR

STARTCHAR G
ENCODING 71
SWIDTH 600 0
DWIDTH 5 0
BBX 4 5 1 -1
BITMAP
70
C0
B0
90
60
ENDCHAR

STARTCHAR H
ENCODING 72
SWIDTH 600 0
DWIDTH 5 0
BBX 5 5 0 -1
BITMAP
68
28
70
50
D0
ENDCHAR

STARTCHAR I
ENCODING 73
SWIDTH 600 0
DWIDTH 5 0
BBX 4 5 1 -1
BITMAP
70
20
40
40
E0
ENDCHAR

STARTCHAR J
ENCODING 74
SWIDTH 600 0
DWIDTH 5 0
BBX 4 5 0 -1
BITMAP
70
10
20
A0
C0
ENDCHAR

STARTCHAR K
ENCODING 75
SWIDTH 600 0
DWIDTH 5 0
BBX 5 5 0 -1
BITMAP
68
30
60
50
C8
ENDCHAR

STARTCHAR L
ENCODING 76
SWIDTH 600 0
DWIDTH 5 0
BBX 5 5 0 -1
BITMAP
70
20
40
48
F0
ENDCHAR

STARTCHAR M
ENCODING 77
SWIDTH 600 0
DWIDTH 5 0
BBX 5 5 0 -1
BITMAP
48
58
68
90
B0
ENDCHAR

STARTCHAR N
ENCODING 78
SWIDTH 600 0
DWIDTH 5 0
BBX 5 5 0 -1
BITMAP
68
28
50
50
D0
ENDCHAR

STARTCHAR O
ENCODING 79
SWIDTH 600 0
DWIDTH 5 0
BBX 4 5 1 -1
BITMAP
60
D0
90
B0
60
ENDCHAR

STARTCHAR P
ENCODING 80
SWIDTH 600 0
DWIDTH 5 0
BBX 5 5 0 -1
BITMAP
70
28
70
40
C0
ENDCHAR

STARTCHAR Q
ENCODING 81
SWIDTH 600 0
DWIDTH 5 0
BBX 4 6 1 -2
BITMAP
60
D0
90
B0
40
E0
ENDCHAR

STARTCHAR R
ENCODING 82
SWIDTH 600 0
DWIDTH 5 0
BBX 5 5 0 -1
BITMAP
70
28
70
50
D0
ENDCHAR

STARTCHAR S
ENCODING 83
SWIDTH 600 0
DWIDTH 5 0
BBX 5 5 0 -1
BITMAP
38
48
20
90
E0
ENDCHAR

STARTCHAR T
ENCODING 84
SWIDTH 600 0
DWIDTH 5 0
BBX 5 5 0 -1
BITMAP
78
A8
20
40
E0
ENDCHAR

STARTCHAR U
ENCODING 85
SWIDTH 600 0
DWIDTH 5 0
BBX 5 5 0 -1
BITMAP
48
48
90
90
E0
ENDCHAR

STARTCHAR V
ENCODING 86
SWIDTH 600 0
DWIDTH 5 0
BBX 5 5 1 -1
BITMAP
D8
50
60
40
40
ENDCHAR

STARTCHAR W
ENCODING 87
SWIDTH 600 0
DWIDTH 5 0
BBX 5 5 1 -1
BITMAP
98
D0
D0
E0
A0
ENDCHAR

STARTCHAR X
ENCODING 88
SWIDTH 600 0
DWIDTH 5 0
BBX 5 5 0 -1
BITMAP
58
50
20
50
90
ENDCHAR

STARTCHAR Y
ENCODING 89
SWIDTH 600 0
DWIDTH 5 0
BBX 4 5 1 -1
BITMAP
D0
50
60
40
C0
ENDCHAR

STARTCHAR Z
ENCODING 90
SWIDTH 600 0
DWIDTH 5 0
BBX 4 5 0 -1
BITMAP
70
10
20
40
F0
ENDCHAR

STARTCHAR bracketleft
ENCODING 91
SWIDTH 600 0
DWIDTH 5 0
BBX 3 6 2 -1
BITMAP
60
40
40
80
80
C0
ENDCHAR

STARTCHAR backslash
ENCODING 92
SWIDTH 600 0
DWIDTH 5 0
BBX 2 6 2 -1
BITMAP
80
80
80
40
40
40
ENDCHAR

STARTCHAR bracketright
ENCODING 93
SWIDTH 600 0
DWIDTH 5 0
BBX 3 6 1 -1
BITMAP
60
20
20
40
40
C0
ENDCHAR

STARTCHAR asciicircum
ENCODING 94
SWIDTH 600 0
DWIDTH 5 0
BBX 3 3 1 2
BITMAP
40
60
A0
ENDCHAR

STARTCHAR underscore
ENCODING 95
SWIDTH 600 0
DWIDTH 5 0
BBX 4 1 0 -2
BITMAP
F0
ENDCHAR

STARTCHAR quoteleft
ENCODING 96
SWIDTH 600 0
DWIDTH 5 0
BBX 2 3 2 2
BITMAP
80
80
40
ENDCHAR

STARTCHAR a
ENCODING 97
SWIDTH 600 0
DWIDTH 5 0
BBX 4 4 1 -1
BITMAP
60
30
E0
A0
ENDCHAR

STARTCHAR b
ENCODING 98
SWIDTH 600 0
DWIDTH 5 0
BBX 5 6 0 -1
BITMAP
60
20
30
48
48
F0
ENDCHAR

STARTCHAR c
ENCODING 99
SWIDTH 600 0
DWIDTH 5 0
BBX 4 4 1 -1
BITMAP
70
80
90
60
ENDCHAR

STARTCHAR d
ENCODING 100
SWIDTH 600 0
DWIDTH 5 0
BBX 5 6 1 -1
BITMAP
18
08
70
90
A0
50
ENDCHAR

STARTCHAR e
ENCODING 101
SWIDTH 600 0
DWIDTH 5 0
BBX 4 4 1 -1
BITMAP
70
F0
80
60
ENDCHAR

STARTCHAR f
ENCODING 102
SWIDTH 600 0
DWIDTH 5 0
BBX 5 6 1 -1
BITMAP
18
20
F0
40
40
C0
ENDCHAR

STARTCHAR g
ENCODING 103
SWIDTH 600 0
DWIDTH 5 0
BBX 4 5 1 -2
BITMAP
70
90
E0
20
C0
ENDCHAR

STARTCHAR h
ENCODING 104
SWIDTH 600 0
DWIDTH 5 0
BBX 5 6 0 -1
BITMAP
60
20
38
48
50
D0
ENDCHAR

STARTCHAR i
ENCODING 105
SWIDTH 600 0
DWIDTH 5 0
BBX 4 6 1 -1
BITMAP
10
00
60
20
40
E0
ENDCHAR

STARTCHAR j
ENCODING 106
SWIDTH 600 0
DWIDTH 5 0
BBX 4 7 0 -2
BITMAP
10
00
70
20
20
20
C0
ENDCHAR

STARTCHAR k
ENCODING 107
SWIDTH 600 0
DWIDTH 5 0
BBX 5 6 0 -1
BITMAP
60
20
28
70
50
D0
ENDCHAR

STARTCHAR l
ENCODING 108
SWIDTH 600 0
DWIDTH 5 0
BBX 4 6 0 -1
BITMAP
30
10
10
20
20
F0
ENDCHAR

STARTCHAR m
ENCODING 109
SWIDTH 600 0
DWIDTH 5 0
BBX 5 4 0 -1
BITMAP
48
78
A8
88
ENDCHAR

STARTCHAR n
ENCODING 110
SWIDTH 600 0
DWIDTH 5 0
BBX 5 4 0 -1
BITMAP
58
68
48
D8
ENDCHAR

STARTCHAR o
ENCODING 111
SWIDTH 600 0
DWIDTH 5 0
BBX 4 4 1 -1
BITMAP
70
90
90
E0
ENDCHAR

STARTCHAR p
ENCODING 112
SWIDTH 600 0
DWIDTH 5 0
BBX 5 5 0 -2
BITMAP
70
28
48
70
C0
ENDCHAR

STARTCHAR q
ENCODING 113
SWIDTH 600 0
DWIDTH 5 0
BBX 4 5 1 -2
BITMAP
70
90
A0
40
E0
ENDCHAR

STARTCHAR r
ENCODING 114
SWIDTH 600 0
DWIDTH 5 0
BBX 5 4 1 -1
BITMAP
58
60
40
C0
ENDCHAR

STARTCHAR s
ENCODING 115
SWIDTH 600 0
DWIDTH 5 0
BBX 4 4 1 -1
BITMAP
30
40
20
E0
ENDCHAR

STARTCHAR t
ENCODING 116
SWIDTH 600 0
DWIDTH 5 0
BBX 4 6 1 -1
BITMAP
20
20
F0
40
80
E0
ENDCHAR

STARTCHAR u
ENCODING 117
SWIDTH 600 0
DWIDTH 5 0
BBX 4 4 1 -1
BITMAP
D0
50
B0
D0
ENDCHAR

STARTCHAR v
ENCODING 118
SWIDTH 600 0
DWIDTH 5 0
BBX 4 4 1 -1
BITMAP
D0
50
60
40
ENDCHAR

STARTCHAR w
ENCODING 119
SWIDTH 600 0
DWIDTH 5 0
BBX 4 4 1 -1
BITMAP
90
D0
E0
A0
ENDCHAR

STARTCHAR x
ENCODING 120
SWIDTH 600 0
DWIDTH 5 0
BBX 5 4 0 -1
BITMAP
58
20
60
90
ENDCHAR

STARTCHAR y
ENCODING 121
SWIDTH 600 0
DWIDTH 5 0
BBX 5 5 0 -2
BITMAP
48
48
50
20
C0
ENDCHAR

STARTCHAR z
ENCODING 122
SWIDTH 600 0
DWIDTH 5 0
BBX 4 4 1 -1
BITMAP
70
20
40
E0
ENDCHAR

STARTCHAR braceleft
ENCODING 123
SWIDTH 600 0
DWIDTH 5 0
BBX 3 6 2 -1
BITMAP
60
40
C0
40
80
C0
ENDCHAR

STARTCHAR bar
ENCODING 124
SWIDTH 600 0
DWIDTH 5 0
BBX 2 6 2 -1
BITMAP
40
40
40
80
80
80
ENDCHAR

STARTCHAR braceright
ENCODING 125
SWIDTH 600 0
DWIDTH 5 0
BBX 3 6 1 -1
BITMAP
60
20
40
60
40
C0
ENDCHAR

STARTCHAR asciitilde
ENCODING 126
SWIDTH 600 0
DWIDTH 5 0
BBX 4 2 1 1
BITMAP
50
A0
ENDCHAR

STARTCHAR cent
ENCODING 162
SWIDTH 600 0
DWIDTH 5 0
BBX 3 5 1 -1
BITMAP
20
60
80
E0
40
ENDCHAR

STARTCHAR sterling
ENCODING 163
SWIDTH 600 0
DWIDTH 5 0
BBX 5 6 0 -1
BITMAP
18
20
F0
40
50
E0
ENDCHAR

STARTCHAR currency
ENCODING 164
SWIDTH 600 0
DWIDTH 5 0
BBX 4 4 1 0
BITMAP
90
60
60
90
ENDCHAR

STARTCHAR yen
ENCODING 165
SWIDTH 600 0
DWIDTH 5 0
BBX 5 6 1 -1
BITMAP
50
D8
60
F0
40
C0
ENDCHAR

STARTCHAR brokenbar
ENCODING 166
SWIDTH 600 0
DWIDTH 5 0
BBX 2 7 2 -2
BITMAP
40
40
40
00
80
80
80
ENDCHAR

STARTCHAR section
ENCODING 167
SWIDTH 600 0
DWIDTH 5 0
BBX 5 7 1 -2
BITMAP
38
40
70
50
70
10
E0
ENDCHAR

STARTCHAR dieresis
ENCODING 168
SWIDTH 600 0
DWIDTH 5 0
BBX 3 1 2 4
BITMAP
A0
ENDCHAR

STARTCHAR copyright
ENCODING 169
SWIDTH 600 0
DWIDTH 5 0
BBX 6 7 0 -2
BITMAP
30
48
B4
A4
B4
48
30
ENDCHAR

STARTCHAR multiply
ENCODING 170
SWIDTH 600 0
DWIDTH 5 0
BBX 5 4 0 -1
BITMAP
48
30
60
90
ENDCHAR

STARTCHAR guillemotleft
ENCODING 171
SWIDTH 600 0
DWIDTH 5 0
BBX 4 3 0 -1
BITMAP
50
A0
50
ENDCHAR

STARTCHAR logicalnot
ENCODING 172
SWIDTH 600 0
DWIDTH 5 0
BBX 4 2 1 1
BITMAP
F0
20
ENDCHAR

STARTCHAR hyphen
ENCODING 173
SWIDTH 600 0
DWIDTH 5 0
BBX 3 1 1 2
BITMAP
E0
ENDCHAR

STARTCHAR registered
ENCODING 174
SWIDTH 600 0
DWIDTH 5 0
BBX 6 7 0 -2
BITMAP
30
48
B4
B4
AC
48
30
ENDCHAR

STARTCHAR macron
ENCODING 175
SWIDTH 600 0
DWIDTH 5 0
BBX 3 1 2 4
BITMAP
E0
ENDCHAR

STARTCHAR degree
ENCODING 176
SWIDTH 600 0
DWIDTH 5 0
BBX 3 3 1 2
BITMAP
E0
A0
E0
ENDCHAR

STARTCHAR plusminus
ENCODING 177
SWIDTH 600 0
DWIDTH 5 0
BBX 4 5 1 -1
BITMAP
20
F0
40
00
E0
ENDCHAR

STARTCHAR twosuperior
ENCODING 178
SWIDTH 600 0
DWIDTH 5 0
BBX 3 4 2 1
BITMAP
60
20
40
E0
ENDCHAR

STARTCHAR threesuperior
ENCODING 179
SWIDTH 600 0
DWIDTH 5 0
BBX 3 4 2 1
BITMAP
E0
60
20
C0
ENDCHAR

STARTCHAR acute
ENCODING 180
SWIDTH 600 0
DWIDTH 5 0
BBX 2 2 3 4
BITMAP
40
80
ENDCHAR

STARTCHAR mu
ENCODING 181
SWIDTH 600 0
DWIDTH 5 0
BBX 5 5 0 -2
BITMAP
50
50
50
F8
80
ENDCHAR

STARTCHAR paragraph
ENCODING 182
SWIDTH 600 0
DWIDTH 5 0
BBX 5 7 1 -2
BITMAP
78
D0
D0
50
A0
A0
A0
ENDCHAR

STARTCHAR periodcentered
ENCODING 183
SWIDTH 600 0
DWIDTH 5 0
BBX 1 1 2 2
BITMAP
80
ENDCHAR

STARTCHAR cedilla
ENCODING 184
SWIDTH 600 0
DWIDTH 5 0
BBX 2 2 1 -2
BITMAP
40
C0
ENDCHAR

STARTCHAR onesuperior
ENCODING 185
SWIDTH 600 0
DWIDTH 5 0
BBX 3 4 2 1
BITMAP
C0
40
40
E0
ENDCHAR

STARTCHAR divide
ENCODING 186
SWIDTH 600 0
DWIDTH 5 0
BBX 4 5 1 -1
BITMAP
20
00
F0
00
40
ENDCHAR

STARTCHAR guillemotright
ENCODING 187
SWIDTH 600 0
DWIDTH 5 0
BBX 4 3 1 -1
BITMAP
A0
50
A0
ENDCHAR

STARTCHAR onequarter
ENCODING 188
SWIDTH 600 0
DWIDTH 5 0
BBX 5 7 0 -2
BITMAP
40
C8
50
20
50
B8
10
ENDCHAR

STARTCHAR onehalf
ENCODING 189
SWIDTH 600 0
DWIDTH 5 0
BBX 6 7 0 -2
BITMAP
40
C8
50
20
58
88
1C
ENDCHAR

STARTCHAR threequarters
ENCODING 190
SWIDTH 600 0
DWIDTH 5 0
BBX 5 7 0 -2
BITMAP
C0
68
D0
20
50
B8
10
ENDCHAR

STARTCHAR dblunderscore
ENCODING 223
SWIDTH 600 0
DWIDTH 5 0
BBX 5 5 0 -2
BITMAP
00
00
F8
00
F8
ENDCHAR

STARTCHAR aleph
ENCODING 224
SWIDTH 600 0
DWIDTH 5 0
BBX 5 6 0 -2
BITMAP
00
28
28
50
50
00
ENDCHAR

STARTCHAR beth
ENCODING 225
SWIDTH 600 0
DWIDTH 5 0
BBX 5 6 0 -2
BITMAP
00
70
10
20
F0
00
ENDCHAR

STARTCHAR gimmel
ENCODING 226
SWIDTH 600 0
DWIDTH 5 0
BBX 5 5 0 -1
BITMAP
00
38
08
30
D0
ENDCHAR

STARTCHAR daleth
ENCODING 227
SWIDTH 600 0
DWIDTH 5 0
BBX 5 6 0 -2
BITMAP
00
78
10
20
20
00
ENDCHAR

STARTCHAR he
ENCODING 228
SWIDTH 600 0
DWIDTH 5 0
BBX 5 6 0 -2
BITMAP
00
78
08
50
50
00
ENDCHAR

STARTCHAR waw
ENCODING 229
SWIDTH 600 0
DWIDTH 5 0
BBX 5 6 0 -2
BITMAP
00
70
10
20
20
00
ENDCHAR

STARTCHAR zayin
ENCODING 230
SWIDTH 600 0
DWIDTH 5 0
BBX 4 5 1 -1
BITMAP
00
F0
40
80
80
ENDCHAR

STARTCHAR het
ENCODING 231
SWIDTH 600 0
DWIDTH 5 0
BBX 5 6 0 -2
BITMAP
00
78
28
50
50
00
ENDCHAR

STARTCHAR teth
ENCODING 232
SWIDTH 600 0
DWIDTH 5 0
BBX 5 6 0 -2
BITMAP
00
58
68
90
F0
00
ENDCHAR

STARTCHAR yod
ENCODING 233
SWIDTH 600 0
DWIDTH 5 0
BBX 4 6 0 -2
BITMAP
00
70
10
20
00
00
ENDCHAR

STARTCHAR kaphfinal
ENCODING 234
SWIDTH 600 0
DWIDTH 5 0
BBX 5 6 0 -2
BITMAP
00
78
10
20
40
60
ENDCHAR

STARTCHAR kaph
ENCODING 235
SWIDTH 600 0
DWIDTH 5 0
BBX 5 6 0 -2
BITMAP
00
78
08
10
E0
00
ENDCHAR

STARTCHAR lamed
ENCODING 236
SWIDTH 600 0
DWIDTH 5 0
BBX 5 7 0 -2
BITMAP
20
40
78
08
10
20
00
ENDCHAR

STARTCHAR memfinal
ENCODING 237
SWIDTH 600 0
DWIDTH 5 0
BBX 5 6 0 -2
BITMAP
00
78
28
50
70
00
ENDCHAR

STARTCHAR mem
ENCODING 238
SWIDTH 600 0
DWIDTH 5 0
BBX 5 6 0 -2
BITMAP
00
58
68
48
B0
00
ENDCHAR

STARTCHAR nunfinal
ENCODING 239
SWIDTH 600 0
DWIDTH 5 0
BBX 4 6 1 -2
BITMAP
00
E0
20
40
80
C0
ENDCHAR

STARTCHAR nun
ENCODING 240
SWIDTH 600 0
DWIDTH 5 0
BBX 5 6 0 -2
BITMAP
00
30
10
20
E0
00
ENDCHAR

STARTCHAR samekh
ENCODING 241
SWIDTH 600 0
DWIDTH 5 0
BBX 5 6 0 -2
BITMAP
00
78
48
90
60
00
ENDCHAR

STARTCHAR ayin
ENCODING 242
SWIDTH 600 0
DWIDTH 5 0
BBX 5 6 0 -2
BITMAP
00
68
28
50
F0
00
ENDCHAR

STARTCHAR pefinal
ENCODING 243
SWIDTH 600 0
DWIDTH 5 0
BBX 5 6 0 -2
BITMAP
00
78
48
50
10
18
ENDCHAR

STARTCHAR pe
ENCODING 244
SWIDTH 600 0
DWIDTH 5 0
BBX 5 6 0 -2
BITMAP
00
78
48
10
F0
00
ENDCHAR

STARTCHAR zadikfinal
ENCODING 245
SWIDTH 600 0
DWIDTH 5 0
BBX 5 6 0 -2
BITMAP
00
68
28
30
40
60
ENDCHAR

STARTCHAR zadik
ENCODING 246
SWIDTH 600 0
DWIDTH 5 0
BBX 5 6 0 -2
BITMAP
00
68
28
10
F0
00
ENDCHAR

STARTCHAR kof
ENCODING 247
SWIDTH 600 0
DWIDTH 5 0
BBX 5 6 0 -2
BITMAP
00
78
08
50
60
80
ENDCHAR

STARTCHAR resh
ENCODING 248
SWIDTH 600 0
DWIDTH 5 0
BBX 4 6 0 -2
BITMAP
00
70
10
20
20
00
ENDCHAR

STARTCHAR shin
ENCODING 249
SWIDTH 600 0
DWIDTH 5 0
BBX 5 6 0 -2
BITMAP
00
A8
A8
A8
F8
00
ENDCHAR

STARTCHAR taf
ENCODING 250
SWIDTH 600 0
DWIDTH 5 0
BBX 5 6 0 -2
BITMAP
00
78
28
50
D0
00
ENDCHAR
ENDFONT
